<?xml version="1.0" encoding="utf-8"?>
<!DOCTYPE svg
  PUBLIC '-//W3C//DTD SVG 1.0//EN'
  'http://www.w3.org/TR/2001/REC-SVG-20010904/DTD/svg10.dtd'>
<svg width="510.236220472441" height="249.4488188976378" preserveAspectRatio="xMinYMin meet" viewBox="0 0 510 249" xmlns="http://www.w3.org/2000/svg" version="1.0" fill-rule="evenodd" xmlns:xlink="http://www.w3.org/1999/xlink">
	<title>...</title>
	<desc>...</desc>
	<clipPath id="clip">
		<rect x="0" y="0" width="510.236220472441" height="249.4488188976378"/>
	</clipPath>
	<g id="group" transform="scale(1,-1) translate(0,-249)" style="clip-path: url(#clip)">
		<g transform="">
			<rect x="0" y="0" width="510.236220472441" height="249.4488188976378" style="stroke: none; stroke-linecap: butt; stroke-width: 1; fill: rgb(100%,100%,100%); fill-rule: evenodd;"/>
			<text x="14" y="233.4488188976378" style="font-family: R074I-Bold; font-size: 9.6px;fill: rgb(12%,16%,20%); stroke:none;" transform="translate(0,466) scale(1,-1)">R0.74I moving-tube criterion and logarithmic screen</text>
			<text x="14" y="221.4488188976378" style="font-family: R074I-Regular; font-size: 5.75px;fill: rgb(38%,42%,47%); stroke:none;" transform="translate(0,442) scale(1,-1)">36/36 exact finite gates; analytic implications and affine exponents only; no unknown constants plotted.</text>
			<circle cx="493.236220472441" cy="235.6488188976378" r="1.9" style="stroke: rgb(12%,35%,56%); stroke-linecap: butt; stroke-width: 0.45; fill: none; fill-rule: evenodd;"/>
			<circle cx="496.2796013245855" cy="233.43767327963764" r="1.9" style="stroke: rgb(12%,35%,56%); stroke-linecap: butt; stroke-width: 0.45; fill: none; fill-rule: evenodd;"/>
			<circle cx="495.1171332797769" cy="229.85996451563798" r="1.9" style="stroke: rgb(12%,35%,56%); stroke-linecap: butt; stroke-width: 0.45; fill: none; fill-rule: evenodd;"/>
			<circle cx="491.3553076651051" cy="229.85996451563798" r="1.9" style="stroke: rgb(12%,35%,56%); stroke-linecap: butt; stroke-width: 0.45; fill: none; fill-rule: evenodd;"/>
			<circle cx="490.1928396202965" cy="233.43767327963764" r="1.9" style="stroke: rgb(12%,35%,56%); stroke-linecap: butt; stroke-width: 0.45; fill: none; fill-rule: evenodd;"/>
			<circle cx="493.236220472441" cy="232.4488188976378" r="1.05" style="stroke: rgb(12%,35%,56%); stroke-linecap: butt; stroke-width: 0.35; fill: rgb(65%,45%,7%); fill-rule: evenodd;"/>
			<path d="M 14,213.448819 L 496.23622,213.448819 Z" style="stroke: rgb(89%,90%,92%); stroke-linecap: butt; stroke-width: 0.7;"/>
			<path d="M 257.11811,25 L 257.11811,207.448819 Z" style="stroke: rgb(89%,90%,92%); stroke-linecap: butt; stroke-width: 0.7;"/>
			<text x="16" y="198.4488188976378" style="font-family: R074I-Bold; font-size: 8.2px;fill: rgb(12%,16%,20%); stroke:none;" transform="translate(0,396) scale(1,-1)">A</text>
			<text x="31" y="198.4488188976378" style="font-family: R074I-Bold; font-size: 6.6px;fill: rgb(12%,16%,20%); stroke:none;" transform="translate(0,396) scale(1,-1)">Moving tube to a regular point</text>
			<rect x="181.1181102362205" y="186.4488188976378" width="62.0" height="12.0" rx="3" ry="3" style="stroke: rgb(12%,35%,56%); stroke-linecap: butt; stroke-width: 0.75; fill: rgb(90%,94%,96%); fill-rule: evenodd;"/>
			<text x="190.17932849793925" y="190.24881889763782" style="font-family: R074I-Bold; font-size: 4.65px;fill: rgb(12%,35%,56%); stroke:none;" transform="translate(0,380) scale(1,-1)">ANALYTIC CHAIN</text>
			<rect x="18" y="99.4488188976378" width="100" height="78.0" rx="3" ry="3" style="stroke: rgb(89%,90%,92%); stroke-linecap: butt; stroke-width: 0.75; fill: rgb(96%,97%,98%); fill-rule: evenodd;"/>
			<text x="25" y="165.4488188976378" style="font-family: R074I-Bold; font-size: 4.8px;fill: rgb(38%,42%,47%); stroke:none;" transform="translate(0,330) scale(1,-1)">moving-tube geometry</text>
			<ellipse cx="69.5" cy="134.4488188976378" rx="39.5" ry="23.0" style="stroke: rgb(65%,45%,7%); stroke-linecap: butt; stroke-width: 0.8; fill: rgb(98%,94%,87%); fill-rule: evenodd; stroke-dasharray: 5, 2;"/>
			<ellipse cx="71.0" cy="134.9488188976378" rx="22.0" ry="15.5" style="stroke: rgb(12%,35%,56%); stroke-linecap: butt; stroke-width: 0.9; fill: rgb(90%,94%,96%); fill-rule: evenodd;"/>
			<path d="M 53,126.036945 L 53,143.860692 Z" style="stroke: rgb(12%,35%,56%); stroke-linecap: butt; stroke-width: 0.3;"/>
			<path d="M 60,121.525425 L 60,148.372213 Z" style="stroke: rgb(12%,35%,56%); stroke-linecap: butt; stroke-width: 0.3;"/>
			<path d="M 67,119.70717 L 67,150.190467 Z" style="stroke: rgb(12%,35%,56%); stroke-linecap: butt; stroke-width: 0.3;"/>
			<path d="M 74,119.593607 L 74,150.304031 Z" style="stroke: rgb(12%,35%,56%); stroke-linecap: butt; stroke-width: 0.3;"/>
			<path d="M 81,121.142604 L 81,148.755034 Z" style="stroke: rgb(12%,35%,56%); stroke-linecap: butt; stroke-width: 0.3;"/>
			<path d="M 88,125.110377 L 88,144.787261 Z" style="stroke: rgb(12%,35%,56%); stroke-linecap: butt; stroke-width: 0.3;"/>
			<path d="M 43 132.448819 C 56 146.448819 69 123.448819 85 136.448819 C 94 143.448819 97 141.448819 100 139.448819 " style="stroke: rgb(12%,16%,20%); stroke-linecap: butt; stroke-width: 1; fill: none; fill-rule: evenodd; stroke-dasharray: 2, 1.5;"/>
			<circle cx="85" cy="136.4488188976378" r="2.2" style="stroke: rgb(12%,16%,20%); stroke-linecap: butt; stroke-width: 0.8; fill: rgb(100%,100%,100%); fill-rule: evenodd;"/>
			<circle cx="85" cy="136.4488188976378" r="0.8" style="stroke: rgb(12%,16%,20%); stroke-linecap: butt; stroke-width: 0.3; fill: rgb(12%,16%,20%); fill-rule: evenodd;"/>
			<text x="25" y="105.4488188976378" style="font-family: R074I-Regular; font-size: 4.05px;fill: rgb(38%,42%,47%); stroke:none;" transform="translate(0,210) scale(1,-1)">schematic path; no samples</text>
			<text x="64.2412109375" y="150.4488188976378" style="font-family: R074I-Bold; font-size: 4.0px;fill: rgb(65%,45%,7%); stroke:none;" transform="translate(0,300) scale(1,-1)">B_R(X_R(t))</text>
			<text x="59.7886962890625" y="123.4488188976378" style="font-family: R074I-Bold; font-size: 3.9px;fill: rgb(12%,35%,56%); stroke:none;" transform="translate(0,246) scale(1,-1)">B_(R/2)(x0)</text>
			<rect x="127" y="163.4488188976378" width="121.1181102362205" height="24.0" rx="3" ry="3" style="stroke: rgb(12%,35%,56%); stroke-linecap: butt; stroke-width: 0.75; fill: rgb(90%,94%,96%); fill-rule: evenodd;"/>
			<text x="133" y="176.6488188976378" style="font-family: R074I-Bold; font-size: 4.25px;fill: rgb(12%,35%,56%); stroke:none;" transform="translate(0,353) scale(1,-1)">1  E_R sufficiently small</text>
			<text x="133" y="168.4488188976378" style="font-family: R074I-Regular; font-size: 3.85px;fill: rgb(38%,42%,47%); stroke:none;" transform="translate(0,336) scale(1,-1)">hypothesis; epsilon not plotted</text>
			<path d="M 187.559055,163.448819 L 187.559055,154.448819 Z" style="stroke: rgb(12%,16%,20%); stroke-linecap: butt; stroke-width: 0.9;"/>
			<polygon points="187.5591 154.4488, 189.1291 157.4646, 185.989 157.4646" style="stroke: rgb(12%,16%,20%); stroke-linecap: butt; stroke-width: 0.35; fill: rgb(12%,16%,20%); fill-rule: evenodd;"/>
			<rect x="127" y="130.4488188976378" width="121.1181102362205" height="24.0" rx="3" ry="3" style="stroke: rgb(12%,35%,56%); stroke-linecap: butt; stroke-width: 0.75; fill: rgb(100%,100%,100%); fill-rule: evenodd;"/>
			<text x="133" y="143.6488188976378" style="font-family: R074I-Bold; font-size: 4.25px;fill: rgb(12%,35%,56%); stroke:none;" transform="translate(0,287) scale(1,-1)">2  sup |X_R(t)-x0| &lt;= R/2</text>
			<text x="133" y="135.4488188976378" style="font-family: R074I-Regular; font-size: 3.85px;fill: rgb(38%,42%,47%); stroke:none;" transform="translate(0,270) scale(1,-1)">path confinement</text>
			<path d="M 187.559055,130.448819 L 187.559055,121.448819 Z" style="stroke: rgb(12%,16%,20%); stroke-linecap: butt; stroke-width: 0.9; stroke-dasharray: 3, 2;"/>
			<polygon points="187.5591 121.4488, 189.1291 124.4646, 185.989 124.4646" style="stroke: rgb(12%,16%,20%); stroke-linecap: butt; stroke-width: 0.35; fill: rgb(12%,16%,20%); fill-rule: evenodd;"/>
			<rect x="127" y="97.4488188976378" width="121.1181102362205" height="24.0" rx="3" ry="3" style="stroke: rgb(65%,45%,7%); stroke-linecap: butt; stroke-width: 0.75; fill: rgb(98%,94%,87%); fill-rule: evenodd; stroke-dasharray: 4, 2;"/>
			<text x="133" y="110.64881889763781" style="font-family: R074I-Bold; font-size: 4.25px;fill: rgb(65%,45%,7%); stroke:none;" transform="translate(0,221) scale(1,-1)">3  fixed Q_(R/2) cubic is small</text>
			<text x="133" y="102.4488188976378" style="font-family: R074I-Regular; font-size: 3.85px;fill: rgb(38%,42%,47%); stroke:none;" transform="translate(0,204) scale(1,-1)">&lt;= C E_R^(3/2)</text>
			<path d="M 187.559055,97.448819 L 187.559055,88.448819 Z" style="stroke: rgb(12%,16%,20%); stroke-linecap: butt; stroke-width: 0.9;"/>
			<polygon points="187.5591 88.44882, 189.1291 91.4646, 185.989 91.4646" style="stroke: rgb(12%,16%,20%); stroke-linecap: butt; stroke-width: 0.35; fill: rgb(12%,16%,20%); fill-rule: evenodd;"/>
			<rect x="127" y="64.4488188976378" width="121.1181102362205" height="24.0" rx="3" ry="3" style="stroke: rgb(12%,16%,20%); stroke-linecap: butt; stroke-width: 0.75; fill: rgb(100%,100%,100%); fill-rule: evenodd;"/>
			<text x="133" y="77.64881889763781" style="font-family: R074I-Bold; font-size: 4.25px;fill: rgb(12%,16%,20%); stroke:none;" transform="translate(0,155) scale(1,-1)">4  z0 is a regular point</text>
			<text x="133" y="69.4488188976378" style="font-family: R074I-Regular; font-size: 3.85px;fill: rgb(38%,42%,47%); stroke:none;" transform="translate(0,138) scale(1,-1)">velocity-only one-scale criterion</text>
			<path d="M 118,138.448819 L 124,142.448819 Z" style="stroke: rgb(65%,45%,7%); stroke-linecap: butt; stroke-width: 0.9; stroke-dasharray: 4, 2;"/>
			<polygon points="124 142.4488, 120.6198 142.0823, 122.3616 139.4696" style="stroke: rgb(65%,45%,7%); stroke-linecap: butt; stroke-width: 0.35; fill: rgb(65%,45%,7%); fill-rule: evenodd;"/>
			<text x="19" y="31" style="font-family: R074I-Regular; font-size: 4.25px;fill: rgb(38%,42%,47%); stroke:none;" transform="translate(0,62) scale(1,-1)">Scope: no claim that E_R is small at every point or scale.</text>
			<text x="267.1181102362205" y="198.4488188976378" style="font-family: R074I-Bold; font-size: 8.2px;fill: rgb(12%,16%,20%); stroke:none;" transform="translate(0,396) scale(1,-1)">B</text>
			<text x="282.1181102362205" y="198.4488188976378" style="font-family: R074I-Bold; font-size: 6.55px;fill: rgb(12%,16%,20%); stroke:none;" transform="translate(0,396) scale(1,-1)">Exact logarithmic exponent screen</text>
			<rect x="419.236220472441" y="186.4488188976378" width="70.0" height="12.0" rx="3" ry="3" style="stroke: rgb(65%,45%,7%); stroke-linecap: butt; stroke-width: 0.75; fill: rgb(98%,94%,87%); fill-rule: evenodd; stroke-dasharray: 4, 2;"/>
			<text x="425.7566550427535" y="190.24881889763782" style="font-family: R074I-Bold; font-size: 4.45px;fill: rgb(65%,45%,7%); stroke:none;" transform="translate(0,380) scale(1,-1)">EXACT AFFINE SCREEN</text>
			<text x="269.1181102362205" y="177.4488188976378" style="font-family: R074I-Bold; font-size: 4.75px;fill: rgb(38%,42%,47%); stroke:none;" transform="translate(0,354) scale(1,-1)">candidate residual power:  y(gamma) = 1 - 2 gamma</text>
			<rect x="305.1181102362205" y="78" width="90.55905511811028" height="83.4488188976378" style="stroke: none; stroke-linecap: butt; stroke-width: 1; fill: rgb(98%,94%,87%); fill-rule: evenodd;"/>
			<path d="M 305.11811,161 L 305.566929,161.448819 Z" style="stroke: rgb(65%,45%,7%); stroke-linecap: butt; stroke-width: 0.32;"/>
			<path d="M 305.11811,152 L 314.566929,161.448819 Z" style="stroke: rgb(65%,45%,7%); stroke-linecap: butt; stroke-width: 0.32;"/>
			<path d="M 305.11811,143 L 323.566929,161.448819 Z" style="stroke: rgb(65%,45%,7%); stroke-linecap: butt; stroke-width: 0.32;"/>
			<path d="M 305.11811,134 L 332.566929,161.448819 Z" style="stroke: rgb(65%,45%,7%); stroke-linecap: butt; stroke-width: 0.32;"/>
			<path d="M 305.11811,125 L 341.566929,161.448819 Z" style="stroke: rgb(65%,45%,7%); stroke-linecap: butt; stroke-width: 0.32;"/>
			<path d="M 305.11811,116 L 350.566929,161.448819 Z" style="stroke: rgb(65%,45%,7%); stroke-linecap: butt; stroke-width: 0.32;"/>
			<path d="M 305.11811,107 L 359.566929,161.448819 Z" style="stroke: rgb(65%,45%,7%); stroke-linecap: butt; stroke-width: 0.32;"/>
			<path d="M 305.11811,98 L 368.566929,161.448819 Z" style="stroke: rgb(65%,45%,7%); stroke-linecap: butt; stroke-width: 0.32;"/>
			<path d="M 305.11811,89 L 377.566929,161.448819 Z" style="stroke: rgb(65%,45%,7%); stroke-linecap: butt; stroke-width: 0.32;"/>
			<path d="M 305.11811,80 L 386.566929,161.448819 Z" style="stroke: rgb(65%,45%,7%); stroke-linecap: butt; stroke-width: 0.32;"/>
			<path d="M 312.11811,78 L 395.566929,161.448819 Z" style="stroke: rgb(65%,45%,7%); stroke-linecap: butt; stroke-width: 0.32;"/>
			<path d="M 321.11811,78 L 395.677165,152.559055 Z" style="stroke: rgb(65%,45%,7%); stroke-linecap: butt; stroke-width: 0.32;"/>
			<path d="M 330.11811,78 L 395.677165,143.559055 Z" style="stroke: rgb(65%,45%,7%); stroke-linecap: butt; stroke-width: 0.32;"/>
			<path d="M 339.11811,78 L 395.677165,134.559055 Z" style="stroke: rgb(65%,45%,7%); stroke-linecap: butt; stroke-width: 0.32;"/>
			<path d="M 348.11811,78 L 395.677165,125.559055 Z" style="stroke: rgb(65%,45%,7%); stroke-linecap: butt; stroke-width: 0.32;"/>
			<path d="M 357.11811,78 L 395.677165,116.559055 Z" style="stroke: rgb(65%,45%,7%); stroke-linecap: butt; stroke-width: 0.32;"/>
			<path d="M 366.11811,78 L 395.677165,107.559055 Z" style="stroke: rgb(65%,45%,7%); stroke-linecap: butt; stroke-width: 0.32;"/>
			<path d="M 375.11811,78 L 395.677165,98.559055 Z" style="stroke: rgb(65%,45%,7%); stroke-linecap: butt; stroke-width: 0.32;"/>
			<path d="M 384.11811,78 L 395.677165,89.559055 Z" style="stroke: rgb(65%,45%,7%); stroke-linecap: butt; stroke-width: 0.32;"/>
			<path d="M 393.11811,78 L 395.677165,80.559055 Z" style="stroke: rgb(65%,45%,7%); stroke-linecap: butt; stroke-width: 0.32;"/>
			<rect x="395.6771653543308" y="78" width="90.55905511811022" height="83.4488188976378" style="stroke: none; stroke-linecap: butt; stroke-width: 1; fill: rgb(90%,94%,96%); fill-rule: evenodd;"/>
			<circle cx="401" cy="84" r="0.42" style="stroke: rgb(12%,35%,56%); stroke-linecap: butt; stroke-width: 0.2; fill: rgb(12%,35%,56%); fill-rule: evenodd;"/>
			<circle cx="401" cy="97" r="0.42" style="stroke: rgb(12%,35%,56%); stroke-linecap: butt; stroke-width: 0.2; fill: rgb(12%,35%,56%); fill-rule: evenodd;"/>
			<circle cx="401" cy="110" r="0.42" style="stroke: rgb(12%,35%,56%); stroke-linecap: butt; stroke-width: 0.2; fill: rgb(12%,35%,56%); fill-rule: evenodd;"/>
			<circle cx="401" cy="123" r="0.42" style="stroke: rgb(12%,35%,56%); stroke-linecap: butt; stroke-width: 0.2; fill: rgb(12%,35%,56%); fill-rule: evenodd;"/>
			<circle cx="401" cy="136" r="0.42" style="stroke: rgb(12%,35%,56%); stroke-linecap: butt; stroke-width: 0.2; fill: rgb(12%,35%,56%); fill-rule: evenodd;"/>
			<circle cx="401" cy="149" r="0.42" style="stroke: rgb(12%,35%,56%); stroke-linecap: butt; stroke-width: 0.2; fill: rgb(12%,35%,56%); fill-rule: evenodd;"/>
			<circle cx="414" cy="84" r="0.42" style="stroke: rgb(12%,35%,56%); stroke-linecap: butt; stroke-width: 0.2; fill: rgb(12%,35%,56%); fill-rule: evenodd;"/>
			<circle cx="414" cy="97" r="0.42" style="stroke: rgb(12%,35%,56%); stroke-linecap: butt; stroke-width: 0.2; fill: rgb(12%,35%,56%); fill-rule: evenodd;"/>
			<circle cx="414" cy="110" r="0.42" style="stroke: rgb(12%,35%,56%); stroke-linecap: butt; stroke-width: 0.2; fill: rgb(12%,35%,56%); fill-rule: evenodd;"/>
			<circle cx="414" cy="123" r="0.42" style="stroke: rgb(12%,35%,56%); stroke-linecap: butt; stroke-width: 0.2; fill: rgb(12%,35%,56%); fill-rule: evenodd;"/>
			<circle cx="414" cy="136" r="0.42" style="stroke: rgb(12%,35%,56%); stroke-linecap: butt; stroke-width: 0.2; fill: rgb(12%,35%,56%); fill-rule: evenodd;"/>
			<circle cx="414" cy="149" r="0.42" style="stroke: rgb(12%,35%,56%); stroke-linecap: butt; stroke-width: 0.2; fill: rgb(12%,35%,56%); fill-rule: evenodd;"/>
			<circle cx="427" cy="84" r="0.42" style="stroke: rgb(12%,35%,56%); stroke-linecap: butt; stroke-width: 0.2; fill: rgb(12%,35%,56%); fill-rule: evenodd;"/>
			<circle cx="427" cy="97" r="0.42" style="stroke: rgb(12%,35%,56%); stroke-linecap: butt; stroke-width: 0.2; fill: rgb(12%,35%,56%); fill-rule: evenodd;"/>
			<circle cx="427" cy="110" r="0.42" style="stroke: rgb(12%,35%,56%); stroke-linecap: butt; stroke-width: 0.2; fill: rgb(12%,35%,56%); fill-rule: evenodd;"/>
			<circle cx="427" cy="123" r="0.42" style="stroke: rgb(12%,35%,56%); stroke-linecap: butt; stroke-width: 0.2; fill: rgb(12%,35%,56%); fill-rule: evenodd;"/>
			<circle cx="427" cy="136" r="0.42" style="stroke: rgb(12%,35%,56%); stroke-linecap: butt; stroke-width: 0.2; fill: rgb(12%,35%,56%); fill-rule: evenodd;"/>
			<circle cx="427" cy="149" r="0.42" style="stroke: rgb(12%,35%,56%); stroke-linecap: butt; stroke-width: 0.2; fill: rgb(12%,35%,56%); fill-rule: evenodd;"/>
			<circle cx="440" cy="84" r="0.42" style="stroke: rgb(12%,35%,56%); stroke-linecap: butt; stroke-width: 0.2; fill: rgb(12%,35%,56%); fill-rule: evenodd;"/>
			<circle cx="440" cy="97" r="0.42" style="stroke: rgb(12%,35%,56%); stroke-linecap: butt; stroke-width: 0.2; fill: rgb(12%,35%,56%); fill-rule: evenodd;"/>
			<circle cx="440" cy="110" r="0.42" style="stroke: rgb(12%,35%,56%); stroke-linecap: butt; stroke-width: 0.2; fill: rgb(12%,35%,56%); fill-rule: evenodd;"/>
			<circle cx="440" cy="123" r="0.42" style="stroke: rgb(12%,35%,56%); stroke-linecap: butt; stroke-width: 0.2; fill: rgb(12%,35%,56%); fill-rule: evenodd;"/>
			<circle cx="440" cy="136" r="0.42" style="stroke: rgb(12%,35%,56%); stroke-linecap: butt; stroke-width: 0.2; fill: rgb(12%,35%,56%); fill-rule: evenodd;"/>
			<circle cx="440" cy="149" r="0.42" style="stroke: rgb(12%,35%,56%); stroke-linecap: butt; stroke-width: 0.2; fill: rgb(12%,35%,56%); fill-rule: evenodd;"/>
			<circle cx="453" cy="84" r="0.42" style="stroke: rgb(12%,35%,56%); stroke-linecap: butt; stroke-width: 0.2; fill: rgb(12%,35%,56%); fill-rule: evenodd;"/>
			<circle cx="453" cy="97" r="0.42" style="stroke: rgb(12%,35%,56%); stroke-linecap: butt; stroke-width: 0.2; fill: rgb(12%,35%,56%); fill-rule: evenodd;"/>
			<circle cx="453" cy="110" r="0.42" style="stroke: rgb(12%,35%,56%); stroke-linecap: butt; stroke-width: 0.2; fill: rgb(12%,35%,56%); fill-rule: evenodd;"/>
			<circle cx="453" cy="123" r="0.42" style="stroke: rgb(12%,35%,56%); stroke-linecap: butt; stroke-width: 0.2; fill: rgb(12%,35%,56%); fill-rule: evenodd;"/>
			<circle cx="453" cy="136" r="0.42" style="stroke: rgb(12%,35%,56%); stroke-linecap: butt; stroke-width: 0.2; fill: rgb(12%,35%,56%); fill-rule: evenodd;"/>
			<circle cx="453" cy="149" r="0.42" style="stroke: rgb(12%,35%,56%); stroke-linecap: butt; stroke-width: 0.2; fill: rgb(12%,35%,56%); fill-rule: evenodd;"/>
			<circle cx="466" cy="84" r="0.42" style="stroke: rgb(12%,35%,56%); stroke-linecap: butt; stroke-width: 0.2; fill: rgb(12%,35%,56%); fill-rule: evenodd;"/>
			<circle cx="466" cy="97" r="0.42" style="stroke: rgb(12%,35%,56%); stroke-linecap: butt; stroke-width: 0.2; fill: rgb(12%,35%,56%); fill-rule: evenodd;"/>
			<circle cx="466" cy="110" r="0.42" style="stroke: rgb(12%,35%,56%); stroke-linecap: butt; stroke-width: 0.2; fill: rgb(12%,35%,56%); fill-rule: evenodd;"/>
			<circle cx="466" cy="123" r="0.42" style="stroke: rgb(12%,35%,56%); stroke-linecap: butt; stroke-width: 0.2; fill: rgb(12%,35%,56%); fill-rule: evenodd;"/>
			<circle cx="466" cy="136" r="0.42" style="stroke: rgb(12%,35%,56%); stroke-linecap: butt; stroke-width: 0.2; fill: rgb(12%,35%,56%); fill-rule: evenodd;"/>
			<circle cx="466" cy="149" r="0.42" style="stroke: rgb(12%,35%,56%); stroke-linecap: butt; stroke-width: 0.2; fill: rgb(12%,35%,56%); fill-rule: evenodd;"/>
			<circle cx="479" cy="84" r="0.42" style="stroke: rgb(12%,35%,56%); stroke-linecap: butt; stroke-width: 0.2; fill: rgb(12%,35%,56%); fill-rule: evenodd;"/>
			<circle cx="479" cy="97" r="0.42" style="stroke: rgb(12%,35%,56%); stroke-linecap: butt; stroke-width: 0.2; fill: rgb(12%,35%,56%); fill-rule: evenodd;"/>
			<circle cx="479" cy="110" r="0.42" style="stroke: rgb(12%,35%,56%); stroke-linecap: butt; stroke-width: 0.2; fill: rgb(12%,35%,56%); fill-rule: evenodd;"/>
			<circle cx="479" cy="123" r="0.42" style="stroke: rgb(12%,35%,56%); stroke-linecap: butt; stroke-width: 0.2; fill: rgb(12%,35%,56%); fill-rule: evenodd;"/>
			<circle cx="479" cy="136" r="0.42" style="stroke: rgb(12%,35%,56%); stroke-linecap: butt; stroke-width: 0.2; fill: rgb(12%,35%,56%); fill-rule: evenodd;"/>
			<circle cx="479" cy="149" r="0.42" style="stroke: rgb(12%,35%,56%); stroke-linecap: butt; stroke-width: 0.2; fill: rgb(12%,35%,56%); fill-rule: evenodd;"/>
			<rect x="305.1181102362205" y="78" width="181.1181102362205" height="83.4488188976378" style="stroke: rgb(89%,90%,92%); stroke-linecap: butt; stroke-width: 0.75; fill: none; fill-rule: evenodd;"/>
			<path d="M 305.11811,119.724409 L 486.23622,119.724409 Z" style="stroke: rgb(12%,16%,20%); stroke-linecap: butt; stroke-width: 0.75;"/>
			<path d="M 305.11811,78 L 305.11811,161.448819 Z" style="stroke: rgb(12%,16%,20%); stroke-linecap: butt; stroke-width: 0.75;"/>
			<path d="M 395.677165,78 L 395.677165,161.448819 Z" style="stroke: rgb(12%,16%,20%); stroke-linecap: butt; stroke-width: 0.85; stroke-dasharray: 4, 2;"/>
			<path d="M 305.11811,78 L 305.11811,75 Z" style="stroke: rgb(12%,16%,20%); stroke-linecap: butt; stroke-width: 0.6;"/>
			<text x="303.67432361512675" y="68" style="font-family: R074I-Bold; font-size: 4.15px;fill: rgb(38%,42%,47%); stroke:none;" transform="translate(0,136) scale(1,-1)">0</text>
			<path d="M 350.397638,78 L 350.397638,75 Z" style="stroke: rgb(12%,16%,20%); stroke-linecap: butt; stroke-width: 0.6;"/>
			<text x="346.7522032249631" y="68" style="font-family: R074I-Bold; font-size: 4.15px;fill: rgb(38%,42%,47%); stroke:none;" transform="translate(0,136) scale(1,-1)">1/4</text>
			<path d="M 395.677165,78 L 395.677165,75 Z" style="stroke: rgb(12%,16%,20%); stroke-linecap: butt; stroke-width: 0.6;"/>
			<text x="392.0317307840183" y="68" style="font-family: R074I-Bold; font-size: 4.15px;fill: rgb(38%,42%,47%); stroke:none;" transform="translate(0,136) scale(1,-1)">1/2</text>
			<path d="M 440.956693,78 L 440.956693,75 Z" style="stroke: rgb(12%,16%,20%); stroke-linecap: butt; stroke-width: 0.6;"/>
			<text x="437.3112583430734" y="68" style="font-family: R074I-Bold; font-size: 4.15px;fill: rgb(38%,42%,47%); stroke:none;" transform="translate(0,136) scale(1,-1)">3/4</text>
			<path d="M 486.23622,78 L 486.23622,75 Z" style="stroke: rgb(12%,16%,20%); stroke-linecap: butt; stroke-width: 0.6;"/>
			<text x="484.79243385134725" y="68" style="font-family: R074I-Bold; font-size: 4.15px;fill: rgb(38%,42%,47%); stroke:none;" transform="translate(0,136) scale(1,-1)">1</text>
			<path d="M 302.11811,78 L 305.11811,78 Z" style="stroke: rgb(12%,16%,20%); stroke-linecap: butt; stroke-width: 0.6;"/>
			<text x="294.841376837783" y="76.4" style="font-family: R074I-Bold; font-size: 3.85px;fill: rgb(38%,42%,47%); stroke:none;" transform="translate(0,152) scale(1,-1)">-1</text>
			<path d="M 302.11811,98.862205 L 305.11811,98.862205 Z" style="stroke: rgb(12%,16%,20%); stroke-linecap: butt; stroke-width: 0.6;"/>
			<text x="290.7563914862205" y="97.26220472440946" style="font-family: R074I-Bold; font-size: 3.85px;fill: rgb(38%,42%,47%); stroke:none;" transform="translate(0,194) scale(1,-1)">-1/2</text>
			<path d="M 302.11811,119.724409 L 305.11811,119.724409 Z" style="stroke: rgb(12%,16%,20%); stroke-linecap: butt; stroke-width: 0.6;"/>
			<text x="296.439277228408" y="118.12440944881891" style="font-family: R074I-Bold; font-size: 3.85px;fill: rgb(38%,42%,47%); stroke:none;" transform="translate(0,236) scale(1,-1)">0</text>
			<path d="M 302.11811,140.586614 L 305.11811,140.586614 Z" style="stroke: rgb(12%,16%,20%); stroke-linecap: butt; stroke-width: 0.6;"/>
			<text x="292.3542918768455" y="138.98661417322836" style="font-family: R074I-Bold; font-size: 3.85px;fill: rgb(38%,42%,47%); stroke:none;" transform="translate(0,277) scale(1,-1)">1/2</text>
			<path d="M 302.11811,161.448819 L 305.11811,161.448819 Z" style="stroke: rgb(12%,16%,20%); stroke-linecap: butt; stroke-width: 0.6;"/>
			<text x="296.439277228408" y="159.8488188976378" style="font-family: R074I-Bold; font-size: 3.85px;fill: rgb(38%,42%,47%); stroke:none;" transform="translate(0,319) scale(1,-1)">1</text>
			<path d="M 305.11811,161.448819 L 486.23622,78 Z" style="stroke: rgb(12%,16%,20%); stroke-linecap: butt; stroke-width: 1.45;"/>
			<circle cx="305.1181102362205" cy="161.4488188976378" r="2.35" style="stroke: rgb(12%,16%,20%); stroke-linecap: butt; stroke-width: 0.9; fill: rgb(100%,100%,100%); fill-rule: evenodd;"/>
			<rect x="348.1976377952756" y="138.38661417322837" width="4.399999999999977" height="4.400000000000006" style="stroke: rgb(12%,16%,20%); stroke-linecap: butt; stroke-width: 0.9; fill: rgb(100%,100%,100%); fill-rule: evenodd;"/>
			<polygon points="395.6772 122.7244, 398.6772 119.7244, 395.6772 116.7244, 392.6772 119.7244" style="stroke: rgb(65%,45%,7%); stroke-linecap: butt; stroke-width: 1; fill: rgb(100%,100%,100%); fill-rule: evenodd;"/>
			<rect x="438.7566929133859" y="96.66220472440945" width="4.399999999999977" height="4.400000000000006" style="stroke: rgb(12%,16%,20%); stroke-linecap: butt; stroke-width: 0.9; fill: rgb(100%,100%,100%); fill-rule: evenodd;"/>
			<circle cx="486.236220472441" cy="78.0" r="2.35" style="stroke: rgb(12%,16%,20%); stroke-linecap: butt; stroke-width: 0.9; fill: rgb(100%,100%,100%); fill-rule: evenodd;"/>
			<text x="285.5536571112205" y="164.4488188976378" style="font-family: R074I-Bold; font-size: 4.8px;fill: rgb(12%,16%,20%); stroke:none;" transform="translate(0,328) scale(1,-1)">y</text>
			<text x="386.7559251199558" y="58" style="font-family: R074I-Bold; font-size: 4.3px;fill: rgb(12%,16%,20%); stroke:none;" transform="translate(0,116) scale(1,-1)">gamma</text>
			<text x="334.2147032249631" y="103" style="font-family: R074I-Bold; font-size: 4.35px;fill: rgb(65%,45%,7%); stroke:none;" transform="translate(0,206) scale(1,-1)">gamma &lt; 1/2</text>
			<text x="336.39607529527564" y="93" style="font-family: R074I-Bold; font-size: 5.15px;fill: rgb(65%,45%,7%); stroke:none;" transform="translate(0,186) scale(1,-1)">REJECTED</text>
			<text x="424.7737583430734" y="144.4488188976378" style="font-family: R074I-Bold; font-size: 4.35px;fill: rgb(12%,35%,56%); stroke:none;" transform="translate(0,288) scale(1,-1)">gamma &gt; 1/2</text>
			<text x="406.56620219072965" y="114.4488188976378" style="font-family: R074I-Bold; font-size: 4.15px;fill: rgb(12%,35%,56%); stroke:none;" transform="translate(0,228) scale(1,-1)">NOT REJECTED / NOT PROVED</text>
			<rect x="400.6771653543308" y="124.7244094488189" width="68.0" height="13.0" rx="3" ry="3" style="stroke: rgb(65%,45%,7%); stroke-linecap: butt; stroke-width: 0.75; fill: rgb(100%,100%,100%); fill-rule: evenodd;"/>
			<text x="415.4307298074558" y="128.9244094488189" style="font-family: R074I-Bold; font-size: 4.15px;fill: rgb(12%,16%,20%); stroke:none;" transform="translate(0,257) scale(1,-1)">OPEN ENDPOINT</text>
			<text x="401.6771653543308" y="110.7244094488189" style="font-family: R074I-Bold; font-size: 3.8px;fill: rgb(12%,16%,20%); stroke:none;" transform="translate(0,221) scale(1,-1)">y=0</text>
			<rect x="269.1181102362205" y="25" width="223.1181102362205" height="31" rx="3" ry="3" style="stroke: rgb(89%,90%,92%); stroke-linecap: butt; stroke-width: 0.75; fill: rgb(100%,100%,100%); fill-rule: evenodd;"/>
			<text x="276.1181102362205" y="44" style="font-family: R074I-Bold; font-size: 4.25px;fill: rgb(12%,16%,20%); stroke:none;" transform="translate(0,88) scale(1,-1)">log window:  2rho &lt;= lim log(P_j)/L_j^2 &lt;= 3rho</text>
			<text x="276.1181102362205" y="35" style="font-family: R074I-Regular; font-size: 4.05px;fill: rgb(38%,42%,47%); stroke:none;" transform="translate(0,70) scale(1,-1)">rho=1/320; width=1/320; lacunarity exponent=1/64</text>
			<text x="276.1181102362205" y="27.5" style="font-family: R074I-Regular; font-size: 3.95px;fill: rgb(38%,42%,47%); stroke:none;" transform="translate(0,55) scale(1,-1)">Screen applies along realized lacunary P_j only.</text>
			<rect x="14" y="5" width="482.236220472441" height="15" style="stroke: rgb(65%,45%,7%); stroke-linecap: butt; stroke-width: 0.75; fill: rgb(98%,94%,87%); fill-rule: evenodd;"/>
			<text x="21" y="10" style="font-family: R074I-Bold; font-size: 5.2px;fill: rgb(65%,45%,7%); stroke:none;" transform="translate(0,20) scale(1,-1)">EXACT DIAGRAM</text>
			<text x="214.335419806533" y="10" style="font-family: R074I-Bold; font-size: 4.9px;fill: rgb(12%,16%,20%); stroke:none;" transform="translate(0,20) scale(1,-1)">NOT DNS  ·  NOT SIMULATION</text>
			<text x="458.510878675566" y="10" style="font-family: R074I-Bold; font-size: 5.5px;fill: rgb(12%,16%,20%); stroke:none;" transform="translate(0,20) scale(1,-1)">NOT CLAY</text>
		</g>
	</g>
</svg>
